<?xml version="1.0" encoding="utf-8"?><svg viewBox="0 0 24 24" xmlns="http://www.w3.org/2000/svg" xmlns:xlink="http://www.w3.org/1999/xlink"><style>:root>svg{display:none}:root>svg:target{display:block}</style><svg viewBox="0 0 24 24" id="sprite--basket" xmlns="http://www.w3.org/2000/svg"><path fill-rule="evenodd" clip-rule="evenodd" d="M5.5 21a2.5 2.5 0 115 0 2.5 2.5 0 01-5 0zM8 19.5a1.5 1.5 0 100 3 1.5 1.5 0 000-3zm9.5 1.5a2.5 2.5 0 115 0 2.5 2.5 0 01-5 0zm2.5-1.5a1.5 1.5 0 100 3 1.5 1.5 0 000-3zM1 .5a.5.5 0 000 1h3.58c.758 4.291 1.523 8.564 2.17 12.87a2.5 2.5 0 002.472 2.13H19.36a2.5 2.5 0 002.451-2.01l1.44-7.196A1.5 1.5 0 0021.778 5.5H7.16a1.49 1.49 0 00-.816.24L5.492.914A.5.5 0 005 .5H1zm5.666 6.574A.5.5 0 017.16 6.5h14.62a.5.5 0 01.49.598l-1.44 7.196a1.5 1.5 0 01-1.47 1.206H9.222a1.5 1.5 0 01-1.484-1.277L6.666 7.074z"/></svg><svg viewBox="0 0 24 24" id="sprite--box" xmlns="http://www.w3.org/2000/svg"><path fill-rule="evenodd" clip-rule="evenodd" d="M11.332 1.898l-7.998 4h-.002A1.5 1.5 0 002.5 7.24v9.523a1.5 1.5 0 00.824 1.35l8 4a1.5 1.5 0 001.342 0l8-4h.002a1.5 1.5 0 00.832-1.343V7.24a1.5 1.5 0 00-.832-1.342h-.002l-7.998-4a1.502 1.502 0 00-1.335 0zm-.445-.896a2.5 2.5 0 012.226 0l8 4A2.5 2.5 0 0122.5 7.24v9.53a2.5 2.5 0 01-1.387 2.238l-8 4a2.5 2.5 0 01-2.237 0l-8-4-.001-.002A2.5 2.5 0 011.5 16.758V7.24a2.5 2.5 0 011.387-2.237l8-4z"/><path fill-rule="evenodd" clip-rule="evenodd" d="M1.873 5.936a.5.5 0 01.67-.223L12 10.44l9.456-4.728a.5.5 0 11.448.894l-9.68 4.84a.5.5 0 01-.448 0l-9.68-4.84a.5.5 0 01-.223-.67z"/><path fill-rule="evenodd" clip-rule="evenodd" d="M12 10.5a.5.5 0 01.5.5v11.76a.5.5 0 01-1 0V11a.5.5 0 01.5-.5zM6.553 3.276a.5.5 0 01.67-.223l10 5a.5.5 0 11-.447.894l-10-5a.5.5 0 01-.223-.67z"/></svg><svg fill="none" viewBox="0 0 22 20" id="sprite--filled-heart" xmlns="http://www.w3.org/2000/svg"><path fill-rule="evenodd" clip-rule="evenodd" d="M11.705 2.256A6 6 0 0121.95 6.5a6 6 0 01-1.758 4.243l-8.84 8.84a.5.5 0 01-.707 0l-8.84-8.84a6.001 6.001 0 118.487-8.487l.706.707.707-.707zm4.243-.758a5 5 0 00-3.536 1.465l-1.06 1.06a.5.5 0 01-.707 0l-1.06-1.06a5.001 5.001 0 10-7.073 7.073l8.486 8.487 8.487-8.487a5 5 0 00-3.537-8.538z" fill="red"/><path d="M12.412 2.963a5 5 0 117.073 7.073l-8.487 8.487-8.486-8.487a5.001 5.001 0 117.073-7.073l1.06 1.06a.5.5 0 00.707 0l1.06-1.06z" fill="red"/></svg><svg viewBox="0 0 23 20" id="sprite--heart" xmlns="http://www.w3.org/2000/svg"><path fill-rule="evenodd" clip-rule="evenodd" d="M12.205 2.256a6 6 0 118.487 8.488l-8.84 8.84a.5.5 0 01-.707 0l-8.84-8.84a6.001 6.001 0 118.487-8.488l.706.707.707-.707zm4.243-.758a5 5 0 00-3.536 1.465l-1.06 1.06a.5.5 0 01-.707 0l-1.06-1.06a5.001 5.001 0 10-7.073 7.073l8.486 8.487 8.487-8.487a5 5 0 00-3.537-8.538z"/></svg><svg viewBox="0 0 16 16" id="sprite--star" xmlns="http://www.w3.org/2000/svg"><path d="M7.103 1.817a1 1 0 011.794 0l1.221 2.475a1 1 0 00.753.548l2.732.397a1 1 0 01.555 1.705L12.18 8.87a1 1 0 00-.288.885l.467 2.721a1 1 0 01-1.451 1.054l-2.444-1.284a1 1 0 00-.93 0L5.09 13.529a1 1 0 01-1.45-1.054l.466-2.72a1 1 0 00-.288-.886L1.843 6.942a1 1 0 01.554-1.705l2.732-.397a1 1 0 00.753-.548l1.221-2.475z"/></svg></svg>